<svg xmlns="http://www.w3.org/2000/svg" viewBox="0 0 589.26 589.25"><defs><style>.cls-1{fill:#fff;fill-rule:evenodd;}</style></defs><g id="圖層_2" data-name="圖層 2"><g id="圖層_1-2" data-name="圖層 1"><path class="cls-1" d="M567.7,183.75A294.55,294.55,0,0,0,86.3,86.28,294.64,294.64,0,1,0,503,503,295.05,295.05,0,0,0,567.7,183.75ZM399,39.19A276.05,276.05,0,0,1,546.24,181.31,280.6,280.6,0,0,0,493.62,153c-2.88-1.19-5.84-2.24-8.84-3.27L398,51.91A115.21,115.21,0,0,0,399,39.19ZM287.34,67c19.38-2,38.78-4.2,58.21-5.32a283.5,283.5,0,0,1,35.95-.2l88.2,99.41c-3,9.59-6,19.21-9.54,28.6-6.23,16.47-12.91,32.77-19.55,49.1l-128,13.15c-1.53-2-3.12-4-4.79-5.9-15.12-17.13-30.33-34.14-45.53-51.21.14-.17.28-.3.42-.45q-9.19-9.19-18.41-18.39L279.9,68.51A50.45,50.45,0,0,1,287.34,67ZM63.07,170.64c4.41-11.75,8.75-23.58,13.74-35.1a264.19,264.19,0,0,1,13-25.82c3.12-3.46,6.36-6.88,9.7-10.21A274.27,274.27,0,0,1,206.88,33.05c-.2.32-.41.65-.61,1,.35.25.51.46.7.52,19.85,6.86,37.9,17,54.92,28.93L228.58,163.79a4,4,0,0,0-.49.17c-6.82,2.82-13.76,5.34-20.47,8.39-27.65,12.57-54.6,26.48-80,43.17L61.92,176.64A20,20,0,0,1,63.07,170.64ZM77,420.54c-1.12-.57-2.24-1.19-3.32-1.88a201.82,201.82,0,0,1-38.85-31.25,277.76,277.76,0,0,1-9-154.78A247.5,247.5,0,0,1,44.7,201.32c2.19-3.08,4.22-6.3,6.56-9.29l66.49,39.34V233a512.3,512.3,0,0,0,10.69,106.25c0,.16.05.25.08.39ZM157.23,534l111.46,19.86c.86.54,1.73,1.06,2.64,1.53a254.63,254.63,0,0,0,35.39,14.82A276.42,276.42,0,0,1,157.23,534ZM276.75,528c-1.84,2.46-3.79,4.83-5.83,7.19L139.39,511.79A411.12,411.12,0,0,1,98.27,452.2c-3-5.37-6.41-10.59-9-16.2l51.51-80.77c1.14.28,2.41.58,3.85,1,32.23,8.62,65,14.75,98.05,19.55,1.93.27,3.54.51,4.92.66l61.75,106.76C298.66,498.24,287.83,513.22,276.75,528ZM429.4,463.45a580.6,580.6,0,0,1-104,10L261.84,363.64q14.84-27.52,29.4-55.21c6.59-12.51,13.07-25.1,19.55-37.68l131.44-13.5c16.09,23.61,31.34,47.73,44.6,73.09,2.45,4.67,4.87,9.39,7.3,14.18L430.49,463.23A10.52,10.52,0,0,1,429.4,463.45Zm60.35,26.29a273.69,273.69,0,0,1-33.22,28.35,252.4,252.4,0,0,0-10-45.3l65.89-122.91c18.15-8.27,35.66-17.64,51.91-29.26a23.23,23.23,0,0,0,5.26-5A274.53,274.53,0,0,1,489.75,489.74Z"/></g></g></svg>